<svg xmlns="http://www.w3.org/2000/svg" xmlns:xlink="http://www.w3.org/1999/xlink" width="27" height="17" viewBox="0 0 27 17"><defs><path id="a" d="M1702.01 698.2a.76.76 0 0 0 0 1.06l6.43 6.48h-23.69a.75.75 0 0 0-.75.75c0 .42.33.75.75.75h23.69l-6.43 6.47a.76.76 0 0 0 0 1.07c.3.3.77.3 1.06 0l7.71-7.76a.76.76 0 0 0 .22-.53c0-.2-.08-.39-.22-.53l-7.71-7.75a.74.74 0 0 0-1.06-.01z"/></defs><desc>Generated with Avocode.</desc><g transform="translate(-1684 -698)"><use fill="#6d9b00" xlink:href="#a"/></g></svg>