<svg xmlns="http://www.w3.org/2000/svg" width="21" height="20" viewBox="0 0 21 20"><path fill="#626262" d="M15.05 19.29H12.6V17.5c0-.2-.16-.36-.35-.36-.2 0-.35.16-.35.36v1.79H9.1V17.5c0-.2-.16-.36-.35-.36-.2 0-.35.16-.35.36v1.79H5.95c-.2 0-.35.16-.35.35 0 .2.16.36.35.36h9.1c.2 0 .35-.16.35-.36 0-.2-.16-.35-.35-.35zm-4.54-5c-.2 0-.35.16-.35.35 0 .2.16.36.35.36.2 0 .35-.16.35-.36 0-.2-.16-.35-.35-.35zm6.4-9.4a.35.35 0 0 0 .49 0 .36.36 0 0 0 0-.5l-.7-.71a.34.34 0 0 0-.5 0 .36.36 0 0 0 0 .5zm0 2.15a.35.35 0 0 0 .49 0 .36.36 0 0 0 0-.5l-2.8-2.86a.34.34 0 0 0-.5 0 .36.36 0 0 0 0 .5zM19.24 0H1.75C.85 0 0 .87 0 1.79v12.85c0 .92.85 1.79 1.75 1.79h17.5c.9 0 1.75-.87 1.75-1.79V1.8C21 .87 20.15 0 19.25 0zm0 15.71H1.75c-.51 0-1.05-.55-1.05-1.07V1.8C.7 1.26 1.24.7 1.75.7h17.5c.51 0 1.05.55 1.05 1.08v12.85c0 .52-.54 1.07-1.05 1.07zm0-14.28H1.75c-.2 0-.35.16-.35.36V13.2c0 .2.16.36.35.36h17.5c.2 0 .35-.16.35-.36V1.8c0-.2-.16-.36-.35-.36zM2.1 12.86V2.14h16.8v10.72z"/></svg>