<svg xmlns="http://www.w3.org/2000/svg" width="20" height="19" viewBox="0 0 20 19"><path fill="#626262" d="M19.57 0H4.78a.43.43 0 0 0-.43.42v8.42H.43a.43.43 0 0 0-.43.42v7.17A2.59 2.59 0 0 0 2.6 19h14.8c1.43 0 2.6-1.15 2.6-2.57v-16c0-.24-.2-.43-.43-.43zM.86 16.43V9.68h3.5v6.75c0 .95-.8 1.72-1.76 1.72S.86 17.38.86 16.43zm16.54 1.72H4.54c.42-.45.67-1.05.67-1.72V.85h13.93v15.58c0 .95-.78 1.72-1.74 1.72zM11.57 4.9h5.5c.24 0 .44-.2.44-.42 0-.24-.2-.43-.43-.43h-5.5a.43.43 0 0 0-.44.43c0 .23.2.42.43.42zm0 4.65h5.5c.24 0 .44-.2.44-.43 0-.23-.2-.42-.43-.42h-5.5a.43.43 0 0 0-.44.42c0 .24.2.43.43.43zm0 4.65h5.5c.24 0 .44-.2.44-.43 0-.23-.2-.42-.43-.42h-5.5a.43.43 0 0 0-.44.42c0 .24.2.43.43.43zM7.61 5.36c.08.09.2.14.31.14.12 0 .24-.05.32-.14L10.6 2.8a.42.42 0 0 0-.03-.6.44.44 0 0 0-.6.03L7.91 4.45l-.64-.66a.43.43 0 0 0-.61-.02.42.42 0 0 0-.02.6zM9.96 7.1L7.91 9.3l-.63-.66a.43.43 0 0 0-.61-.02.42.42 0 0 0-.02.6l.96 1c.08.08.2.13.31.13.12 0 .24-.05.32-.14l2.36-2.55a.42.42 0 0 0-.03-.6.43.43 0 0 0-.6.03zm0 4.85l-2.05 2.21-.63-.66a.43.43 0 0 0-.61-.02.42.42 0 0 0-.02.6l.96 1c.08.08.2.13.31.13.12 0 .24-.05.32-.14l2.36-2.54a.42.42 0 0 0-.03-.6.43.43 0 0 0-.6.02z"/></svg>