<svg xmlns="http://www.w3.org/2000/svg" width="21" height="18" viewBox="0 0 21 18"><path fill="#626262" d="M10.84 14.84V4.25c0-.2-.15-.35-.34-.35a.35.35 0 0 0-.34.35v10.6c0 .19.15.35.34.35.19 0 .34-.16.34-.36zM20.66 1.6c-.72 0-1.6-.32-2.55-.66A11.8 11.8 0 0 0 14.15 0a4.04 4.04 0 0 0-3.65 2.05A4.04 4.04 0 0 0 6.85 0C5.45 0 4.1.5 2.9.93c-.94.34-1.83.66-2.55.66a.35.35 0 0 0-.34.35v14.29c0 .2.15.35.34.35.83 0 1.77-.34 2.77-.7a11.3 11.3 0 0 1 3.74-.89c1.1 0 2 .38 2.67 1.14.12.15.34.16.48.03a.37.37 0 0 0 .02-.5 4.05 4.05 0 0 0-3.17-1.38c-1.4 0-2.76.5-3.96.93-.8.29-1.56.56-2.21.64V2.28c.74-.07 1.57-.37 2.43-.68C4.26 1.18 5.56.7 6.85.7c2.62 0 3.3 2.18 3.33 2.27.04.15.17.25.32.25s.28-.1.32-.25c.01-.02.7-2.26 3.33-2.26 1.3 0 2.59.47 3.74.89.86.3 1.69.6 2.43.68v13.57c-.65-.08-1.41-.35-2.21-.64a11.8 11.8 0 0 0-3.96-.93c-1.63 0-2.62.75-3.17 1.37a.37.37 0 0 0 .02.5c.14.14.36.13.48-.02A3.38 3.38 0 0 1 14.15 15c1.3 0 2.59.47 3.74.89 1 .36 1.94.7 2.77.7.19 0 .34-.16.34-.35V1.94c0-.19-.15-.35-.34-.35zm0 15.7c-.72 0-1.6-.32-2.55-.66a11.8 11.8 0 0 0-3.96-.93c-1.53 0-2.5.66-3.06 1.26H9.9a4.06 4.06 0 0 0-3.06-1.26c-1.4 0-2.76.5-3.96.93-.94.34-1.84.66-2.55.66a.35.35 0 0 0-.34.35c0 .2.15.36.34.36.83 0 1.77-.34 2.77-.7 1.15-.42 2.45-.9 3.74-.9 1.1 0 2 .4 2.67 1.15.06.07.15.12.25.12h1.46c.1 0 .19-.05.25-.12a3.37 3.37 0 0 1 2.67-1.14c1.3 0 2.59.47 3.74.89 1 .36 1.94.7 2.77.7.19 0 .34-.16.34-.36 0-.2-.15-.35-.34-.35z"/></svg>