<svg xmlns="http://www.w3.org/2000/svg" width="27" height="24" viewBox="0 0 27 24"><path fill="#ffa00a" d="M26.96 9.07a.72.72 0 0 0-.58-.48l-8.1-1.1-3.66-7.1a.72.72 0 0 0-.64-.39.72.72 0 0 0-.65.4l-3.6 7.1-8.11 1.17a.72.72 0 0 0-.58.48.67.67 0 0 0 .18.7l5.89 5.52-1.36 7.81c-.05.27.06.53.29.69a.73.73 0 0 0 .75.05l7.24-3.71 7.27 3.67c.1.05.22.07.33.07.4 0 .72-.31.72-.7 0-.05 0-.1-.02-.15l-1.4-7.77 5.84-5.54c.21-.19.28-.47.2-.72zm-7.3 5.52a.67.67 0 0 0-.2.62L20.66 22l-6.3-3.18a.75.75 0 0 0-.68 0l-6.28 3.21 1.18-6.78a.68.68 0 0 0-.21-.61l-5.1-4.8 7.03-1a.71.71 0 0 0 .54-.39l3.13-6.17 3.17 6.16c.1.2.31.34.54.38l7.05.97z"/></svg>