<svg xmlns="http://www.w3.org/2000/svg" xmlns:xlink="http://www.w3.org/1999/xlink" width="23" height="21" viewBox="0 0 23 21"><defs><path id="a" d="M500.06 697c-5.48 0-9.93 4.71-9.93 10.5v.04l-1.97-3.13a.61.61 0 0 0-.88-.2.7.7 0 0 0-.17.93l2.85 4.54a.63.63 0 0 0 .53.3.6.6 0 0 0 .42-.17l3.97-3.78a.7.7 0 0 0 .05-.94.61.61 0 0 0-.9-.05l-2.63 2.51v-.05c0-5.05 3.88-9.16 8.66-9.16s8.67 4.1 8.67 9.16c0 5.05-3.88 9.16-8.66 9.16-2.32 0-4.5-.95-6.13-2.68a.6.6 0 0 0-.9 0 .7.7 0 0 0 0 .95 9.6 9.6 0 0 0 7.03 3.07c5.47 0 9.93-4.7 9.93-10.5s-4.46-10.5-9.94-10.5z"/></defs><desc>Generated with Avocode.</desc><g opacity=".7" transform="translate(-487 -697)"><use xlink:href="#a"/></g></svg>