<svg xmlns="http://www.w3.org/2000/svg" width="36" height="38" viewBox="0 0 36 38"><path fill="#6d9b00" d="M35.27 30.21h-.62V18.82c.44-.54.77-1.16.96-1.82a4.2 4.2 0 0 0-1.13-4.23l-3.18-3.1v-.66a.73.73 0 1 0-1.47 0v.69l-3.17 3.07-.14.14-1.05-1.02v-.62c0-.4-.33-.74-.73-.74-.4 0-.73.33-.73.74v.61l-1.3 1.25-3.13-7.96v-2.1c0-.4-.33-.73-.73-.73h-.12v-.6a.73.73 0 1 0-1.46 0v.6h-.12c-.4 0-.73.33-.73.74v2.09l-3.14 7.96L12 11.88v-.6c0-.41-.32-.74-.73-.74-.4 0-.73.33-.73.73v.62l-1.05 1.03-.14-.15L6.17 9.7V9c0-.4-.33-.74-.73-.74-.4 0-.74.34-.74.74v.67l-3.18 3.1A4.2 4.2 0 0 0 .39 17c.2.66.52 1.28.96 1.82v11.39H.73c-.4 0-.73.33-.73.74v6.31c0 .41.33.74.73.74h34.54c.4 0 .73-.33.73-.74v-6.31c0-.4-.33-.74-.73-.74zm-7.6-16.38l2.9-2.8 2.9 2.8c.74.73 1.03 1.78.74 2.75-.13.43-.34.85-.61 1.21h-3.66a4.25 4.25 0 0 0-1.3-2.82l-1.06-1.03.1-.1zm5.52 16.38H28.8v-9.19c.42-.52.74-1.12.94-1.75h3.44zm-8.46-16.99l2.9 2.81c.74.73 1.03 1.78.74 2.75-.13.43-.34.85-.61 1.21H21.7a3.89 3.89 0 0 1-.62-1.21c-.28-.97 0-2.02.75-2.75zm2.62 8.25v8.74h-5.23v-8.74zM17.88 3.82h.24v.75h-.24zm-.23 2.23h.7l3.23 8.19-.76.73-.05.06h-5.54l-.05-.06-.76-.73zM16.2 16.5h3.6c-.33.85-.38 1.8-.1 2.7.19.66.52 1.28.95 1.82v9.19h-5.3v-9.19c.43-.54.76-1.16.96-1.82.27-.9.22-1.85-.11-2.7zm-4.93-3.28l2.9 2.81c.74.73 1.02 1.78.74 2.75-.13.43-.34.85-.62 1.21H8.25a3.88 3.88 0 0 1-.62-1.21c-.29-.97 0-2.02.74-2.75zm2.61 8.25v8.74H8.65v-8.74zM2.53 13.83l2.9-2.8 2.9 2.8.1.1-1.07 1.04a4.25 4.25 0 0 0-1.3 2.82H2.4a3.85 3.85 0 0 1-.61-1.21c-.29-.97 0-2.02.74-2.75zm4.66 7.2v9.18H2.8V19.27h3.44c.2.63.52 1.23.94 1.75zm-.11 15.5H5.63V35.4c0-.4.33-.73.73-.73.4 0 .72.33.72.73zm6.32 0V35.4c0-.4.32-.73.72-.73.4 0 .72.33.72.73v1.12zm7.76 0V35.4c0-.4.32-.73.72-.73.4 0 .72.33.72.73v1.12zm7.76 0V35.4c0-.4.33-.73.72-.73.4 0 .73.33.73.73v1.12zm2.91 0V35.4a2.2 2.2 0 0 0-2.19-2.2 2.2 2.2 0 0 0-2.18 2.2v1.12h-3.4V35.4a2.2 2.2 0 0 0-2.18-2.2 2.2 2.2 0 0 0-2.19 2.2v1.12h-3.38V35.4a2.2 2.2 0 0 0-2.2-2.2 2.2 2.2 0 0 0-2.18 2.2v1.12H8.55V35.4a2.2 2.2 0 0 0-2.2-2.2 2.2 2.2 0 0 0-2.18 2.2v1.12h-2.7v-4.84h33.06v4.84zM18 21.4c-1.04 0-1.88.85-1.88 1.9v3.08c0 .4.33.73.73.73h2.3c.4 0 .73-.33.73-.73V23.3c0-1.04-.84-1.89-1.88-1.89zm-.41 4.24V23.3c0-.23.18-.41.41-.41.23 0 .41.18.41.41v2.35zm-13.42-5.6c-.4 0-.73.32-.73.73v.27c0 .4.33.73.73.73.4 0 .74-.33.74-.73v-.27c0-.4-.33-.74-.74-.74zm0 2.35c-.4 0-.73.33-.73.74v4.8c0 .4.33.74.73.74.4 0 .74-.33.74-.74v-4.8c0-.41-.33-.74-.74-.74z"/></svg>