<svg xmlns="http://www.w3.org/2000/svg" width="29" height="31" viewBox="0 0 29 31"><path fill="#6d9b00" d="M28.4 29.83h-1.31V11.17a1.6 1.6 0 0 0-1.61-1.58h-2.93c-.89 0-1.61.7-1.61 1.58v18.66h-3.33v-10.2A1.6 1.6 0 0 0 16 18.04h-2.93c-.89 0-1.61.7-1.61 1.57v10.2H8.13v-5.28a1.6 1.6 0 0 0-1.61-1.57H3.59c-.89 0-1.61.7-1.61 1.57v5.29H.6a.6.6 0 0 0-.6.58c0 .33.27.59.6.59h27.8a.6.6 0 0 0 .6-.59.6.6 0 0 0-.6-.58zm-25.22 0v-5.29c0-.22.18-.4.41-.4h2.93a.4.4 0 0 1 .41.4v5.29zm13.23 0h-3.75v-10.2c0-.23.18-.41.41-.41H16a.4.4 0 0 1 .41.4zm5.73 0V11.17c0-.22.18-.4.41-.4h2.93a.4.4 0 0 1 .41.4v18.66zm4.95-28.21a.56.56 0 0 0-.18-.45.59.59 0 0 0-.45-.17.3.3 0 0 0-.03 0h-3.62a.6.6 0 0 0-.6.59c0 .32.27.58.6.58h2.24l-5.92 5.8-2.23-2.2a.6.6 0 0 0-.42-.16.6.6 0 0 0-.42.17L5.3 16.3a.58.58 0 0 0 .43 1 .6.6 0 0 0 .42-.17L16.48 7.02l2.23 2.19c.23.23.61.23.85 0L25.89 3v1.98c0 .33.27.59.6.59a.6.6 0 0 0 .6-.59V1.64v-.02zM3.11 18.77c0 .32.27.59.6.59a.6.6 0 0 0 .6-.59.6.6 0 0 0-.6-.58.6.6 0 0 0-.6.58z"/></svg>