<svg xmlns="http://www.w3.org/2000/svg" width="54" height="52" viewBox="0 0 54 52"><path fill="#6d9b00" d="M27 47.02a.83.83 0 0 0-.83.83v3.32a.83.83 0 1 0 1.66 0v-3.32a.83.83 0 0 0-.83-.83zm25.4-33.67v-.02l-.01-.02a.7.7 0 0 0-.03-.07l-.01-.02a.74.74 0 0 0-.03-.06l-.02-.02c0-.02-.02-.04-.04-.06l-.01-.02a.8.8 0 0 0-.06-.07l-.07-.06-.02-.02a.8.8 0 0 0-.06-.04l-.02-.01-.06-.03-.03-.01a1.05 1.05 0 0 0-.07-.03h-.02l-.01-.01a12.93 12.93 0 0 0-16.35 15.75l-2.12 2.12V14.1v-.01-.03c0-.1-.03-.2-.06-.28l-3.23-7.75L27.77.5a.83.83 0 0 0-1.54 0l-2.3 5.53-3.23 7.75a.84.84 0 0 0-.06.28V40.6l-2.12-2.12A12.89 12.89 0 0 0 6.06 22.14c-1.32 0-2.63.2-3.89.6h-.01-.01-.01a.87.87 0 0 0-.07.03l-.03.01a.93.93 0 0 0-.06.04l-.02.01a.62.62 0 0 0-.06.04l-.02.01a.82.82 0 0 0-.13.14l-.01.01a.78.78 0 0 0-.04.06l-.02.03a.91.91 0 0 0-.03.06v.02a.62.62 0 0 0-.04.07v.03a12.9 12.9 0 0 0 12.31 16.82c1.16 0 2.31-.16 3.43-.46l3.29 3.29v8.22a.83.83 0 0 0 1.66 0V15.34a5.27 5.27 0 0 0 3.87-.5v29.7a.83.83 0 1 0 1.66 0v-29.7a5.14 5.14 0 0 0 3.87.5v35.83a.83.83 0 0 0 1.66 0V32.99l3.3-3.3a12.96 12.96 0 0 0 12.55-3.31 12.89 12.89 0 0 0 3.19-13.03zM14.02 27.1a11.23 11.23 0 0 1 3.12 10L4.02 23.98a11.3 11.3 0 0 1 10 3.12zm-.1 11.36a11.23 11.23 0 0 1-11.07-13.3l13.11 13.11c-.67.12-1.35.19-2.04.19zM27 2.99l1.06 2.54h-2.12zm.68 9.53a.83.83 0 0 0-1.36 0 3.27 3.27 0 0 1-2.7 1.33c-.37 0-.73-.06-1.08-.17l2.7-6.49h3.51l2.7 6.5c-.34.1-.7.16-1.07.16-1.1 0-2.12-.5-2.7-1.33zM48.04 25.2a11.18 11.18 0 0 1-10 3.11l5.38-5.38a.83.83 0 0 0-1.17-1.17l-5.39 5.38a11.23 11.23 0 0 1 13.12-13.11l-5.39 5.38a.83.83 0 0 0 1.18 1.17l5.38-5.38c.67 3.62-.46 7.35-3.11 10z"/></svg>