<svg xmlns="http://www.w3.org/2000/svg" width="43" height="42" viewBox="0 0 43 42"><path fill="#6d9b00" d="M41.79 38.18l-7.45-20.82V9.38h.23a.67.67 0 0 0 0-1.34H24.25c-.38 0-.68.3-.68.67 0 .37.3.67.68.67h.22v7.98l-7.45 20.82c-.35.98-.26 1.95.26 2.68A2.88 2.88 0 0 0 19.71 42H39.1c1.04 0 1.92-.42 2.44-1.14.51-.73.6-1.7.25-2.68zm-1.35 1.9c-.26.38-.74.58-1.34.58H19.71c-.6 0-1.08-.2-1.34-.57-.26-.37-.29-.89-.09-1.46l7.49-20.93a.58.58 0 0 0 .04-.22v-8.1H33v8.1c0 .07.02.15.04.22l7.49 20.93c.2.57.17 1.09-.09 1.46zM26.33 22.1c.08.02.15.03.23.03.27 0 .53-.17.63-.44l1.26-3.52a.58.58 0 0 0 .04-.23v-6.55a.67.67 0 1 0-1.34 0v6.43l-1.22 3.42c-.13.35.05.73.4.86zm10.56 10.33a.68.68 0 0 0-.86-.4.66.66 0 0 0-.4.86l1.82 5.09H21.36l4.71-13.16h6.67l1.98 5.54a.68.68 0 0 0 1.27-.45l-2.15-6a.67.67 0 0 0-.63-.43H25.6a.67.67 0 0 0-.63.44l-5.19 14.5a.7.7 0 0 0 .08.62c.13.17.33.28.55.28H38.4c.22 0 .42-.1.55-.28a.7.7 0 0 0 .08-.62zM9.83 19.55l-1.19.53a10.04 10.04 0 0 0-4.33 3.7.67.67 0 0 0 1.13.73 8.67 8.67 0 0 1 3.75-3.2l1.58-.71c.25-.11.4-.35.4-.62V11.4a.67.67 0 1 0-1.34 0zm.67-10.17c.37 0 .67-.3.67-.67V3.35a.67.67 0 0 0-1.34 0v5.36c0 .37.3.67.67.67zM15 40.43a11.4 11.4 0 0 1-6.91-21.58c.24-.1.4-.34.4-.6V1.34h8.49v16.9c0 .27.16.51.4.62 1.24.55 2.36 1.32 3.34 2.28a.66.66 0 0 0 .94-.01.66.66 0 0 0-.01-.95c-.98-.97-2.1-1.76-3.33-2.36V1.34h.22a.67.67 0 0 0 0-1.34H6.93a.67.67 0 0 0 0 1.34h.22v16.48a12.75 12.75 0 1 0 8.11 23.93.68.68 0 0 0-.26-1.31zm3.95-12.93a.67.67 0 0 0 0-1.35H3.68c-.31 0-.57.2-.65.5a10.05 10.05 0 0 0 12.01 12.4.68.68 0 0 0 .5-.8.68.68 0 0 0-.81-.5A8.72 8.72 0 0 1 4.2 27.49z"/></svg>