<svg xmlns="http://www.w3.org/2000/svg" width="46" height="46" viewBox="0 0 46 46"><path fill="#6d9b00" d="M42.17 0H3.83A3.84 3.84 0 0 0 0 3.83v26.84a3.84 3.84 0 0 0 3.83 3.83h12.89l-1.26 6.9h-3.01c-.88 0-1.67.49-2.06 1.27-.36.72-.32 1.56.1 2.24.42.68 1.15 1.09 1.96 1.09h21.1c.8 0 1.54-.4 1.96-1.1a2.29 2.29 0 0 0-1.96-3.5h-3.01l-1.25-6.9h12.88A3.84 3.84 0 0 0 46 30.67V3.83A3.84 3.84 0 0 0 42.17 0zm-8.62 42.93a.76.76 0 0 1 .66 1.17.76.76 0 0 1-.66.37h-21.1a.76.76 0 0 1-.66-.37.76.76 0 0 1 .65-1.17h9.8a.77.77 0 0 0 0-1.53h-5.22l1.25-6.9h9.46l1.25 6.9h-2.15a.77.77 0 0 0 0 1.53zm10.92-12.26a2.3 2.3 0 0 1-2.3 2.3H3.83a2.3 2.3 0 0 1-2.3-2.3v-2.3h42.94zm0-3.84H1.53v-23a2.3 2.3 0 0 1 2.3-2.3h38.34a2.3 2.3 0 0 1 2.3 2.3zM20.7 15.33h-7.67V7.67a.77.77 0 0 0-.76-.77 9.21 9.21 0 0 0 0 18.4c5.07 0 9.2-4.13 9.2-9.2a.77.77 0 0 0-.77-.77zm-8.43 8.44a7.68 7.68 0 0 1-.77-15.3v7.63c0 .42.34.77.77.77h7.63a7.68 7.68 0 0 1-7.63 6.9zm3.06-19.94a.77.77 0 0 0-.76.77v8.43c0 .43.34.77.76.77h8.44c.42 0 .76-.34.76-.77 0-5.07-4.12-9.2-9.2-9.2zm.77 8.44V5.4a7.68 7.68 0 0 1 6.86 6.86zm26.07-9.2H26.83a.77.77 0 0 0-.76.76v20.7c0 .43.34.77.76.77h15.34c.42 0 .76-.34.76-.77V3.83a.77.77 0 0 0-.76-.76zm-.77 20.7H27.6V4.6h13.8zM34.5 6.9h-4.6a.77.77 0 0 0 0 1.53h4.6a.77.77 0 1 0 0-1.53zm4.6 3.07h-9.2a.77.77 0 0 0 0 1.53h9.2a.77.77 0 0 0 0-1.53zm-4.6 3.06h-4.6a.77.77 0 0 0 0 1.54h4.6a.77.77 0 1 0 0-1.54zm4.6 3.07h-9.2a.77.77 0 0 0 0 1.53h9.2a.77.77 0 1 0 0-1.53zm-4.6 3.07h-4.6a.77.77 0 0 0 0 1.53h4.6a.77.77 0 0 0 0-1.53zM24.53 29.9h-3.06a.77.77 0 1 0 0 1.53h3.06a.77.77 0 1 0 0-1.53z"/></svg>