<svg xmlns="http://www.w3.org/2000/svg" width="36" height="51" viewBox="0 0 36 51"><path fill="#6d9b00" d="M32.48 46.12h-.38a6.2 6.2 0 0 0-6.1-5.43h-5.46v-4.22a19.53 19.53 0 0 0 12.57-5.27l.2.2a.8.8 0 0 0 1.14 0 .82.82 0 0 0 0-1.15l-2.67-2.7A16.55 16.55 0 0 0 36 16.49 16.4 16.4 0 0 0 19.74 0c-4.2 0-8.03 1.62-10.92 4.27l-1.9-1.93-.76-.77a.8.8 0 0 0-1.14 0 .82.82 0 0 0 0 1.15l.2.2A20.02 20.02 0 0 0 0 16.5c0 5.34 2.05 10.37 5.78 14.15a19.54 19.54 0 0 0 13.15 5.83v4.22h-5.45a6.2 6.2 0 0 0-6.1 5.43h-.39c-1.33 0-2.4 1.1-2.4 2.44A2.43 2.43 0 0 0 6.98 51h25.5c1.32 0 2.4-1.1 2.4-2.44a2.43 2.43 0 0 0-2.4-2.44zm1.91-29.63c0 8.19-6.57 14.86-14.65 14.86A14.78 14.78 0 0 1 5.08 16.49c0-8.2 6.57-14.86 14.66-14.86 8.08 0 14.65 6.66 14.65 14.86zm-32.78 0A18.4 18.4 0 0 1 6.36 4.08L7.7 5.42A16.55 16.55 0 0 0 3.47 16.5a16.4 16.4 0 0 0 16.27 16.48c4.2 0 8.02-1.62 10.91-4.27l1.33 1.35a17.97 17.97 0 0 1-25.06-.57 18.4 18.4 0 0 1-5.32-13zm30.87 32.88H7a.8.8 0 0 1-.8-.81.8.8 0 0 1 .8-.81h4.35a.8.8 0 0 0 .8-.82.8.8 0 0 0-.8-.81H9a4.57 4.57 0 0 1 4.48-3.8H26c2.23 0 4.1 1.64 4.47 3.8H14.55a.8.8 0 0 0-.8.81c0 .45.36.82.8.82h17.93c.45 0 .8.36.8.8a.8.8 0 0 1-.8.82zm-16.8-35.85a14.62 14.62 0 0 1-4.91 2.76 19.5 19.5 0 0 1-1.88-4 .8.8 0 0 0-1.01-.52.82.82 0 0 0-.51 1.02c.42 1.3 1.02 2.61 1.78 3.93-.54.11-1.1.2-1.66.24a.81.81 0 0 0-.73.88.8.8 0 0 0 .87.74c.82-.07 1.64-.2 2.44-.4a30.64 30.64 0 0 0 3.63 4.43 30.6 30.6 0 0 0 4.17 3.55c-.23.84-.39 1.7-.48 2.57a.81.81 0 0 0 .8.9.8.8 0 0 0 .8-.73c.06-.61.16-1.22.3-1.81 1.36.83 2.73 1.48 4.06 1.93.08.03.17.05.25.05a.82.82 0 0 0 .25-1.59 19.19 19.19 0 0 1-4.1-2c.64-1.8 1.61-3.45 2.89-4.89l5.2 5.26a.8.8 0 0 0 1.13 0 .82.82 0 0 0 0-1.15l-5.2-5.26a14.43 14.43 0 0 1 4.82-2.92c.86 1.4 1.53 2.8 1.98 4.15a.8.8 0 0 0 1.02.52c.42-.14.64-.6.5-1.03a21.02 21.02 0 0 0-1.9-4.12c.58-.14 1.17-.24 1.78-.3a.81.81 0 0 0 .71-.9.8.8 0 0 0-.88-.72c-.86.09-1.7.25-2.53.48a30.88 30.88 0 0 0-7.46-7.62c.25-.86.44-1.75.56-2.66a.81.81 0 0 0-.7-.91.8.8 0 0 0-.9.7c-.08.65-.2 1.3-.37 1.92-1.45-.9-2.91-1.6-4.33-2.08a.8.8 0 0 0-1.01.52c-.14.43.09.89.51 1.03 1.4.47 2.87 1.2 4.31 2.13a14.79 14.79 0 0 1-3.03 4.78l-5.2-5.27a.8.8 0 0 0-1.14 0 .82.82 0 0 0 0 1.15zm2.72 11.01a29.28 29.28 0 0 1-6.72-6.85 16.22 16.22 0 0 0 5.13-3l4.7 4.75a16.59 16.59 0 0 0-3.11 5.1zm2.84-15.97a29.47 29.47 0 0 1 6.44 6.57c-1.85.73-3.56 1.8-5.04 3.15l-4.66-4.72a16.4 16.4 0 0 0 3.26-5z"/></svg>