<svg xmlns="http://www.w3.org/2000/svg" width="46" height="42" viewBox="0 0 46 42"><path fill="#6d9b00" d="M1.96 7.84v3.05c0 .42.33.76.73.76h.25v4.3c0 .42.32.76.73.76h38.66c.41 0 .73-.34.73-.75v-4.31h.25c.4 0 .73-.34.73-.76V7.84 4.81a.75.75 0 0 0-.73-.76.75.75 0 0 0-.74.76v2.12L23.73 3.17V.76A.74.74 0 0 0 23 0a.74.74 0 0 0-.73.76v2.41L3.43 6.93V4.81a.75.75 0 0 0-.74-.76c-.4 0-.73.34-.73.76v3.03zM41.6 15.2H4.4v-3.54h37.2zM23 4.57l19.57 3.9v1.66H3.43V8.48zm22.27 32.87h-1.23v-2.28a.75.75 0 0 0-.73-.76h-2.2V19.75h.24c.41 0 .73-.34.73-.76a.74.74 0 0 0-.73-.76h-4.89a.75.75 0 0 0-.74.76c0 .42.33.76.74.76h.24V34.4h-3.55V19.75h.25c.4 0 .73-.34.73-.76a.75.75 0 0 0-.73-.76h-4.89a.75.75 0 0 0-.74.76c0 .42.33.76.74.76h.24V34.4H25.2V19.75h.25c.4 0 .73-.34.73-.76a.75.75 0 0 0-.73-.76h-4.9c-.4 0-.73.34-.73.76s.33.76.73.76h.25V34.4h-3.55V19.75h.24c.41 0 .74-.34.74-.76a.75.75 0 0 0-.74-.76H12.6c-.4 0-.73.34-.73.76s.33.76.73.76h.25V34.4H9.3V19.75h.24c.41 0 .74-.34.74-.76a.75.75 0 0 0-.74-.76H4.65a.75.75 0 0 0-.74.76c0 .42.33.76.74.76h.24V34.4h-2.2c-.4 0-.73.34-.73.76v2.28H.73c-.4 0-.73.34-.73.76v3.04c0 .42.33.76.73.76h44.54c.4 0 .73-.34.73-.76V38.2a.75.75 0 0 0-.73-.76zm-7.1-17.69h1.47V34.4h-1.47zm-7.95 0h1.47V34.4h-1.47zm-7.95 0h1.46V34.4h-1.46zm-7.96 0h1.47V34.4h-1.47zm-7.95 0h1.47V34.4H6.36zm38.17 20.73H1.47v-1.52h7.09c.41 0 .74-.34.74-.76a.75.75 0 0 0-.74-.76H3.43v-1.52h39.14v1.52H11.5a.74.74 0 0 0-.73.76c0 .42.32.76.73.76h33.03z"/></svg>