<svg xmlns="http://www.w3.org/2000/svg" width="48" height="37" viewBox="0 0 48 37"><path fill="#6d9b00" d="M18.11 12.05a.76.76 0 0 0-1.06.21l-2.17 3.3-2.18-3.3a.76.76 0 0 0-1.06-.2.78.78 0 0 0-.21 1.07l2.52 3.81-2.52 3.82a.78.78 0 0 0 .2 1.08.76.76 0 0 0 1.07-.21l2.18-3.29 2.17 3.29a.76.76 0 0 0 1.06.21.79.79 0 0 0 .21-1.08l-2.52-3.82 2.52-3.81a.78.78 0 0 0-.2-1.08zm18.25 0a.76.76 0 0 0-1.07.22l-2.15 3.3-2.19-3.3a.76.76 0 0 0-1.06-.22.79.79 0 0 0-.21 1.08l2.7 4.09v3.97c0 .43.34.78.77.78.42 0 .76-.35.76-.78v-3.98l2.66-4.09a.78.78 0 0 0-.21-1.07zm-9.3 4.05h-2.3v-2.33a.77.77 0 0 0-.76-.78.77.77 0 0 0-.77.78v2.33h-2.3a.77.77 0 0 0-.76.78c0 .43.34.78.77.78h2.3v2.33c0 .43.34.77.76.77s.77-.34.77-.77v-2.33h2.3c.42 0 .76-.35.76-.78a.77.77 0 0 0-.77-.78zm20.79 17.48l.02-.03.02-.04.02-.03.02-.04.01-.03.02-.03v-.04l.02-.04v-.03l.01-.05v-.03l.01-.08V.78.7.67l-.01-.04-.01-.04-.01-.04-.01-.03-.02-.04-.01-.03L47.9.4a.21.21 0 0 0-.02-.03l-.02-.03-.02-.04-.02-.03-.05-.05-.06-.05-.03-.02-.03-.03-.03-.02-.04-.02-.03-.02-.03-.01a.5.5 0 0 0-.04-.01l-.03-.02h-.04l-.04-.01-.04-.01h-.03L47.23 0H.66L.62.03H.58L.54.03.51.05H.47L.44.09A.38.38 0 0 0 .4.09L.37.11.34.13a.4.4 0 0 0-.03.03.49.49 0 0 0-.14.13L.15.3.13.35.1.38.09.41.07.45.06.48a.4.4 0 0 1-.02.04v.03L.01.6v.04L0 .67V.7L0 .78v32.44l.01.05.01.03.01.04.01.03.02.04.01.03.02.04.02.03.02.04.02.03.02.03a.6.6 0 0 0 .14.12l.03.03.03.02.03.02.04.02.03.01.04.01a.4.4 0 0 0 .03.02h.04l.04.02h.07l.08.01h3.32v2.33c0 .43.34.78.76.78h38.3c.42 0 .76-.35.76-.78V33.9H47.34l.04-.01.04-.01.04-.01.03-.02h.04l.03-.02.03-.02.04-.02a.36.36 0 0 0 .06-.05.49.49 0 0 0 .14-.12l.02-.03zm-7-1.24v-1.56h3l1.53 1.56zm-7.66 0v-2.6h6.13v2.6zm-30.57 0l1.53-1.56h27.5v1.56zm37.47-4.15h-7.66a.77.77 0 0 0-.77.78v.26H4.6V4.66h38.8v24.57h-2.55v-.26a.77.77 0 0 0-.76-.78zm3.76-25.08H4.15L2.6 1.55h42.77zM3.06 4.2v25.47l-1.53 1.56V2.65zm41.88 25.47V4.21l1.53-1.56v28.59zm-2.56 5.76H5.62V33.9h36.76z"/></svg>