<svg xmlns="http://www.w3.org/2000/svg" width="50" height="46" viewBox="0 0 50 46"><path fill="#6d9b00" d="M46.72 18.34a.8.8 0 0 0-1.11.19.81.81 0 0 0 .19 1.12c1.19.85 2.6 2.2 2.6 3.84 0 2.53-3.51 5.18-9.43 6.85a51.7 51.7 0 0 0-2.64-6.95 51.5 51.5 0 0 0 2.55-6.77c1.56.44 2.99.94 4.25 1.52a.8.8 0 0 0 .33.08.81.81 0 0 0 .33-1.54 30.56 30.56 0 0 0-4.48-1.6c.34-1.36.59-2.66.75-3.9a2.41 2.41 0 0 0 .05-4.7c-.33-2.32-1.25-3.98-2.71-4.83-2.46-1.43-6.06-.39-10.15 2.95a36.2 36.2 0 0 0-2.29 2.06 33.58 33.58 0 0 0-2.31-2.09C18.56 1.24 14.96.2 12.5 1.62c-1.47.86-2.4 2.54-2.71 4.9a2.4 2.4 0 0 0-1.64 1.7 2.41 2.41 0 0 0 1.69 2.96c.16 1.23.42 2.55.77 3.92-1.33.37-2.58.8-3.71 1.27a2.37 2.37 0 0 0-1.65-.66 2.4 2.4 0 0 0-2.34 2.9C1 20.08 0 21.75 0 23.49c0 2.86 2.7 5.5 7.6 7.4.92.35 1.89.68 2.92.97a31.19 31.19 0 0 0-.86 4.68.8.8 0 0 0 .8.88.8.8 0 0 0 .79-.73c.14-1.38.41-2.87.81-4.43 2.24.54 4.69.94 7.26 1.18a51.75 51.75 0 0 0 4.54 5.65c-4.43 4.4-8.48 6.16-10.66 4.89-1.41-.82-1.86-2.73-1.99-4.2a.8.8 0 0 0-.87-.72.8.8 0 0 0-.72.87c.24 2.64 1.2 4.52 2.78 5.44.72.42 1.54.63 2.43.63 2.18 0 4.83-1.21 7.71-3.57.81-.66 1.62-1.4 2.42-2.2 1.02 1.01 2.04 1.91 3.04 2.68v.01c-.16.63-.08 1.28.24 1.84a2.4 2.4 0 0 0 3.27.88c.17-.1.33-.22.46-.35 1.11.45 2.15.68 3.09.68.91 0 1.73-.2 2.44-.62 2.46-1.44 3.36-5.1 2.54-10.35-.15-1-.37-2.05-.64-3.12 1.05-.3 2.06-.63 3-1 4.9-1.9 7.6-4.53 7.6-7.4 0-1.84-1.13-3.62-3.28-5.14zm-9.29 12.4c-1.73.41-3.62.74-5.67.97a65.1 65.1 0 0 0 3.67-6.42c.8 1.86 1.47 3.69 2 5.45zm-19.9-11.53c.84-1.46 1.7-2.84 2.57-4.12a60.42 60.42 0 0 1 9.71 0 60.44 60.44 0 0 1 4.76 8.3 61.13 61.13 0 0 1-4.85 8.51 62.41 62.41 0 0 1-9.52 0 64.4 64.4 0 0 1-4.85-8.5c.66-1.4 1.39-2.8 2.18-4.19zm-3.04 2.29a51.4 51.4 0 0 1-1.91-5.25c1.71-.4 3.55-.73 5.47-.96a58.8 58.8 0 0 0-3.56 6.2zM24.96 8.94a48.42 48.42 0 0 1 3.66 4.45 62.6 62.6 0 0 0-7.33 0 49.95 49.95 0 0 1 3.67-4.45zM35.42 21.5a65.3 65.3 0 0 0-3.56-6.2c1.92.22 3.76.53 5.47.94-.5 1.7-1.14 3.47-1.91 5.26zm4.81-12.26a.8.8 0 0 1-.69.4.78.78 0 0 1-.4-.1.76.76 0 0 1-.37-.5.77.77 0 0 1 .08-.6.78.78 0 0 1 .6-.4h.09a.8.8 0 0 1 .4.1.81.81 0 0 1 .29 1.1zM36.6 3.05c1.22.7 1.72 2.24 1.92 3.6a2.41 2.41 0 0 0-1.29 2.8c.16.63.56 1.15 1.11 1.47l.13.07c-.14 1.17-.38 2.4-.71 3.68-2.19-.51-4.57-.9-7.07-1.13a51.91 51.91 0 0 0-4.62-5.74c4.37-4.3 8.37-6.02 10.53-4.75zM9.69 8.62c.06-.2.19-.38.37-.49.13-.07.26-.1.4-.1h.01a.8.8 0 0 1 .68.4c.11.18.14.4.08.6a.76.76 0 0 1-.37.5.78.78 0 0 1-.4.1.8.8 0 0 1-.77-1.01zm1.75 2.42l.22-.12a2.44 2.44 0 0 0 .88-3.3 2.43 2.43 0 0 0-1.16-1.02c.2-1.36.71-2.87 1.92-3.58 2.17-1.26 6.17.47 10.55 4.78a53.1 53.1 0 0 0-4.63 5.75c-2.5.24-4.88.62-7.07 1.15a28.2 28.2 0 0 1-.71-3.67zm-6.19 6.28a.8.8 0 0 1 0 1.6.8.8 0 0 1-.79-.8c0-.44.35-.8.79-.8zM1.6 23.49c0-1.43 1.06-2.63 2.14-3.5a2.39 2.39 0 0 0 3.91-1.87l-.02-.3a29.8 29.8 0 0 1 3.4-1.17 54.13 54.13 0 0 0 2.55 6.74 54.46 54.46 0 0 0-2.64 6.93C5.07 28.64 1.6 26 1.6 23.49zm10.89 7.23c.52-1.75 1.2-3.58 2-5.43a59.59 59.59 0 0 0 3.66 6.41 47.04 47.04 0 0 1-5.66-.98zM25 33.7c1.19 0 2.37-.03 3.53-.1a47.1 47.1 0 0 1-3.56 4.35 48.92 48.92 0 0 1-3.57-4.35c1.18.07 2.38.1 3.6.1zm5.71 10.56a.75.75 0 0 1-.39.1.8.8 0 0 1-.78-1.01.8.8 0 0 1 .09-.22h.01l.01-.02a.9.9 0 0 1 .26-.25c.13-.07.26-.1.4-.1.29 0 .55.15.69.4.22.38.09.87-.29 1.1zm7.76-9c.7 4.47.05 7.64-1.77 8.7-1.21.7-2.75.4-4.01-.1a2.4 2.4 0 0 0-3.57-2.39l-.21.13a31.41 31.41 0 0 1-2.83-2.5 51.82 51.82 0 0 0 4.52-5.65c2.56-.23 5.01-.62 7.25-1.16.26 1.02.47 2.02.62 2.97zM25 29.13a5.62 5.62 0 0 0 5.59-5.64A5.62 5.62 0 0 0 25 17.85a5.62 5.62 0 0 0-5.59 5.64A5.62 5.62 0 0 0 25 29.13zm0-9.67c2.2 0 3.99 1.8 3.99 4.03A4.01 4.01 0 0 1 25 27.52c-2.2 0-3.99-1.81-3.99-4.03A4.01 4.01 0 0 1 25 19.46z"/></svg>