<svg xmlns="http://www.w3.org/2000/svg" width="44" height="45" viewBox="0 0 44 45"><path fill="#fff" d="M43.1 35.53h-.74V21.68c.52-.66.93-1.42 1.17-2.22a5.1 5.1 0 0 0-1.38-5.14l-3.9-3.76v-.82a.9.9 0 1 0-1.79 0v.84l-3.87 3.74-.17.17-1.29-1.24v-.76a.9.9 0 1 0-1.79 0v.75l-1.57 1.52-3.84-9.69V2.53c0-.5-.4-.9-.9-.9h-.13V.9a.9.9 0 1 0-1.8 0v.73h-.14c-.5 0-.9.4-.9.9v2.54l-3.82 9.69-1.58-1.52v-.75a.9.9 0 1 0-1.8 0v.76l-1.28 1.24a4.6 4.6 0 0 0-.17-.17l-3.87-3.74v-.84a.9.9 0 1 0-1.8 0v.81l-3.89 3.77a5.1 5.1 0 0 0-1.38 5.14c.24.8.65 1.56 1.18 2.21v13.86H.9c-.5 0-.9.4-.9.9v7.67c0 .5.4.9.9.9h42.2c.5 0 .9-.4.9-.9v-7.68c0-.5-.4-.9-.9-.9zM33.83 15.6l3.54-3.42 3.53 3.42c.92.88 1.26 2.16.91 3.34a4.72 4.72 0 0 1-.75 1.47H36.6A5.16 5.16 0 0 0 35.01 17l-1.3-1.25.12-.13zm6.74 19.92h-5.35V24.35a6.5 6.5 0 0 0 1.14-2.14h4.2zM30.23 14.87l3.53 3.42c.92.88 1.27 2.16.91 3.33a4.7 4.7 0 0 1-.75 1.48h-7.39c-.33-.45-.59-.95-.75-1.48-.35-1.17 0-2.45.91-3.33zm3.2 10.02v10.64h-6.4V24.89zM21.86 3.43h.28v.92h-.28zm-.29 2.7h.86l3.94 9.97-.92.9-.07.06h-6.76a2 2 0 0 0-.07-.07l-.92-.89zM19.8 18.86h4.41a5.03 5.03 0 0 0-.13 3.29c.24.8.64 1.56 1.17 2.21v11.18h-6.48V24.35c.53-.65.93-1.41 1.17-2.21.33-1.1.27-2.25-.14-3.29zm-6.02-3.98l3.54 3.42c.91.88 1.26 2.16.9 3.33a4.7 4.7 0 0 1-.74 1.48h-7.4c-.33-.45-.59-.95-.74-1.48-.36-1.17 0-2.45.9-3.33zm3.2 10.02v10.64h-6.4V24.89zM3.1 15.61l3.53-3.42 3.54 3.42.13.12L9 17a5.16 5.16 0 0 0-1.6 3.43H2.95c-.34-.44-.6-.95-.75-1.47-.36-1.18 0-2.46.9-3.34zm5.68 8.74v11.18H3.44V22.22h4.2c.24.77.63 1.5 1.14 2.13zm-.13 18.86H6.88v-1.36a.89.89 0 0 1 1.77 0zm7.72 0v-1.36a.88.88 0 1 1 1.77 0v1.36zm9.49 0v-1.36a.89.89 0 0 1 1.77 0v1.36zm9.49 0v-1.36a.89.89 0 0 1 1.76 0v1.36zm3.55 0v-1.36a2.68 2.68 0 0 0-5.34 0v1.36h-4.14v-1.36a2.68 2.68 0 0 0-5.35 0v1.36h-4.14v-1.36a2.68 2.68 0 0 0-5.35 0v1.36h-4.14v-1.36a2.68 2.68 0 0 0-5.34 0v1.36H1.8v-5.9h40.4v5.9zM22 24.82a2.3 2.3 0 0 0-2.3 2.3v3.75c0 .5.4.9.9.9h2.8c.5 0 .9-.4.9-.9v-3.75a2.3 2.3 0 0 0-2.3-2.3zm-.5 5.16v-2.86a.5.5 0 1 1 1 0v2.86zM5.1 23.16c-.5 0-.9.4-.9.9v.32a.9.9 0 1 0 1.8 0v-.32c0-.5-.4-.9-.9-.9zm0 2.87c-.5 0-.9.4-.9.9v5.83a.9.9 0 1 0 1.8 0v-5.84c0-.5-.4-.9-.9-.9z"/></svg>