<svg xmlns="http://www.w3.org/2000/svg" width="49" height="44" viewBox="0 0 49 44"><path fill="#6d9b00" d="M46.82 25.58a6.72 6.72 0 0 0-2.18-1.39l-3.3-1.37-2.32-1.51v-.77a6.27 6.27 0 0 0 3.31-4.55 2.95 2.95 0 0 0 1.79-4.91V8.25A8.28 8.28 0 0 0 35.82 0h-.63a8.28 8.28 0 0 0-8.02 6.12 8.8 8.8 0 0 0-2.28-.3h-.66c-.83 0-1.63.12-2.39.34A8.28 8.28 0 0 0 13.81 0h-.63c-4.58 0-8.3 3.7-8.3 8.25v2.83a2.95 2.95 0 0 0 1.79 4.91 6.27 6.27 0 0 0 3.31 4.55v.77l-2.32 1.51-3.3 1.37A6.99 6.99 0 0 0 0 30.87v4.67c0 .42.35.77.77.77h9.72c-.15.6-.23 1.26-.23 2v4.92c0 .42.35.77.77.77h18.18c.43 0 .77-.34.77-.77a.77.77 0 0 0-.77-.77h-1.66l-.93-5.75.36-.97.56.4a.76.76 0 0 0 .64.13c.22-.05.41-.2.51-.4l2.1-4.3 2.81 1.17.05.01c.03.02 3.54 1.24 3.54 5.56v4.15h-3.21v-4.38a.77.77 0 0 0-.77-.76.77.77 0 0 0-.77.76v4.38h-.82a.77.77 0 0 0-.78.77c0 .43.35.77.78.77h6.35c.42 0 .77-.35.77-.78v-4.91c0-.74-.09-1.4-.23-2h9.72c.42 0 .77-.35.77-.78v-4.66a6.99 6.99 0 0 0-2.18-5.3zm-10.7-5.87h-1.2c-.17 0-.33-.01-.5-.03v-.13c0-.8-.31-1.53-.82-2.08v-3c0-1.36-.32-2.66-.89-3.8 1.69-.42 3.69-1.2 5.23-2.7a5.5 5.5 0 0 0 2.92 2.93V15c0 2.6-2.13 4.7-4.74 4.7zm1.35 1.39v1.57l-1.98 2.05-1.93-1.87v-1.18c.15-.15.28-.32.4-.5.31.05.64.08.96.08h1.2c.46 0 .92-.06 1.35-.15zm-4.59-1.55c0 .39-.15.74-.39 1.01a.73.73 0 0 0-.35.3 1.5 1.5 0 0 1-.35.15v-2.92c.63.2 1.09.77 1.09 1.46zm10.48-6.48c0 .61-.4 1.13-.95 1.33v-2.66c.55.2.95.71.95 1.33zm-14.72-6.5a6.75 6.75 0 0 1 6.55-5.03h.63a6.75 6.75 0 0 1 6.76 6.7v1.95l-.19-.04a.78.78 0 0 0-.58-.57c-2.17-.49-2.84-3.24-2.84-3.26a.77.77 0 0 0-.6-.58.76.76 0 0 0-.78.3c-1.45 1.99-3.87 2.86-5.74 3.24a8.7 8.7 0 0 0-3.23-2.62l.02-.09zm-4.41.79h.66c3.95 0 7.16 3.2 7.16 7.11v2.1a3.2 3.2 0 0 0-.27-.06l-.01-.03-.01-.03-.01-.04-.01-.03-.02-.04-.01-.03-.02-.04-.02-.02-.02-.04-.02-.02a.37.37 0 0 0-.03-.03l-.02-.03-.03-.02a.8.8 0 0 0-.03-.03l-.02-.02-.04-.03-.03-.01-.03-.03-.04-.01a.44.44 0 0 0-.03-.02l-.04-.02h-.03l-.05-.02h-.02c-2.31-.53-3.01-3.44-3.02-3.47a.77.77 0 0 0-1.38-.28c-2.69 3.69-8.56 3.73-8.65 3.73h-.09-.01l-.06.01h-.02l-.06.02-.02.01-.05.02-.03.01a.22.22 0 0 1-.04.02l-.03.02a.5.5 0 0 0-.06.04l-.03.02-.03.03-.02.02-.03.03c-.01 0-.02.01-.02.03l-.03.02-.02.03-.02.03-.02.04-.01.03-.02.03-.01.04-.02.03v.04l-.01.04h-.01l-.3.06v-2.1a7.14 7.14 0 0 1 7.16-7.11zm.31 24.52l-2.07-2v-1.92c.48.1.97.16 1.48.16h1.26a6.61 6.61 0 0 0 1.47-.15v1.71zm1.15 2.92l-.4 1.06h-1.44l-.46-1.08 1.14-.83zM14.15 28.5h-1.32l-.36-.96 1.06-.77 1.03.76zm.1 3.05a7.3 7.3 0 0 0-1.71 1.2l-.03.03.45-2.74H14zm-.74-6.84l-1.99-2.05V21.1c.44.1.9.15 1.36.15h1.2c.37 0 .74-.04 1.1-.1l.26.35V22.85zm3.24-.99a.76.76 0 0 0 .23-.64l.68.44c.07.24.16.47.26.69l-1.4 2.85-1.83-1.34zm-.47-4.18c0-.69.45-1.27 1.08-1.46V21a1.53 1.53 0 0 1-1.08-1.46zm-.44 8.93l.51.37a.8.8 0 0 0 .65.13c.22-.06.41-.2.51-.41l1.37-2.8a6.7 6.7 0 0 0 2.05 1.62v.8l-2.48 1.63a.47.47 0 0 0-.1.03l-2.63 1.1-.26-1.58zm5.11 1.54c-.06.26.01.54.21.74l2.21 2.13-2.01 1.47-1.71-3.49zm4.26-3.43h-1.26a5.03 5.03 0 0 1-5.04-5V17.4c1.66-.12 5.58-.68 8.23-3.28a5.8 5.8 0 0 0 3.11 3.12v4.34c0 2.76-2.26 5-5.04 5zM6.59 14.39c-.55-.19-.95-.71-.95-1.32 0-.62.4-1.14.95-1.33zm.79-4.83h-.01a.78.78 0 0 0-.76.6l-.19.03V8.25c0-3.7 3.04-6.71 6.76-6.71h.63a6.73 6.73 0 0 1 6.54 5.03l.05.14a8.75 8.75 0 0 0-2.67 2.02c-.89-.93-1.2-2.21-1.21-2.23a.76.76 0 0 0-.6-.58.78.78 0 0 0-.78.3c-2.4 3.3-7.68 3.34-7.75 3.34h-.01zM8.14 15v-3.94c1.52-.11 4.98-.63 7.36-2.9a5.9 5.9 0 0 0 1.3 1.81 8.54 8.54 0 0 0-1.28 4.5v3.03a3.05 3.05 0 0 0-.79 2.05v.11c-.21.03-.43.05-.65.05h-1.2A4.73 4.73 0 0 1 8.14 15zM10 23.14a.7.7 0 0 0 .19.37l2.16 2.22-1.82 1.34-1.59-3.24zm.62 11.63H6.06v-4.11a.77.77 0 1 0-1.55 0v4.11H1.55v-3.9c0-4.04 3.2-5.19 3.34-5.23l.05-.02 2.62-1.09 1.98 4.04a.78.78 0 0 0 1.16.28l.48-.35.32.86zm10.98 7.7h-5.04v-4.38a.77.77 0 0 0-.77-.77.77.77 0 0 0-.77.77v4.37h-3.21v-4.15a5.68 5.68 0 0 1 3.59-5.57l2.86-1.19 2.11 4.32a.78.78 0 0 0 1.15.28l.59-.43.42 1zm1.57 0l.82-5.07h1.17l.83 5.06zm4.54-8.1l-.61-.45h-.01l-1.38-1.02 2.3-2.37a.76.76 0 0 0 .21-.44l1.19.78zm5.57-3.43l-2.59-1.07-2.46-1.61v-.87c.74-.38 1.4-.9 1.94-1.52l1.32 2.7a.78.78 0 0 0 1.16.28l.51-.37.38.9zm-.8-3.87l-1.32-2.69c.15-.31.27-.64.37-.97l.49-.32c-.03.23.05.47.23.64l2.06 2zm3.98 5.7a7.54 7.54 0 0 0-1.71-1.2l.24-1.52h1.05l.45 2.74-.03-.03zm-.29-4.26h-1.32l-.41-.97 1.03-.76 1.06.77zm.48-2.78l2.16-2.22a.7.7 0 0 0 .19-.37l1.06.69-1.59 3.24zm7.84 4.93a.77.77 0 0 0-1.55 0v4.11h-4.56l-.88-5.41.32-.86.48.35a.8.8 0 0 0 .65.13c.22-.06.41-.2.51-.41l1.98-4.04 2.62 1.09.05.02a5.38 5.38 0 0 1 3.34 5.23v3.9h-2.96z"/></svg>